<mxfile host="app.diagrams.net" modified="2020-08-21T11:54:59.325Z" agent="5.0 (Windows NT 10.0; Win64; x64) AppleWebKit/537.36 (KHTML, like Gecko) Chrome/84.0.4147.135 Safari/537.36" etag="9n87aHtMt9qG8oaq0isF" version="13.6.2" type="github">
  <diagram id="C5RBs43oDa-KdzZeNtuy" name="Page-1">
    <mxGraphModel dx="3206" dy="482" grid="1" gridSize="10" guides="1" tooltips="1" connect="1" arrows="1" fold="1" page="1" pageScale="1" pageWidth="1169" pageHeight="827" math="0" shadow="0">
      <root>
        <mxCell id="WIyWlLk6GJQsqaUBKTNV-0" />
        <mxCell id="WIyWlLk6GJQsqaUBKTNV-1" parent="WIyWlLk6GJQsqaUBKTNV-0" />
        <mxCell id="27A55JQhVOzM6nt63yaN-22" value="找工作流程" style="swimlane;html=1;childLayout=stackLayout;resizeParent=1;resizeParentMax=0;startSize=20;fontSize=10;" vertex="1" parent="WIyWlLk6GJQsqaUBKTNV-1">
          <mxGeometry x="-2100" y="460" width="880" height="580" as="geometry" />
        </mxCell>
        <mxCell id="27A55JQhVOzM6nt63yaN-23" value="严格的朋友" style="swimlane;html=1;startSize=20;fontSize=10;" vertex="1" parent="27A55JQhVOzM6nt63yaN-22">
          <mxGeometry y="20" width="222.58" height="560" as="geometry">
            <mxRectangle y="20" width="30" height="560" as="alternateBounds" />
          </mxGeometry>
        </mxCell>
        <mxCell id="rwsjK8wrvo-BfNU32ZgP-0" value="朋友觉得&lt;br style=&quot;font-size: 10px;&quot;&gt;简历行不行？" style="strokeWidth=2;html=1;shape=mxgraph.flowchart.decision;whiteSpace=wrap;fontSize=10;fontFamily=Georgia;" parent="27A55JQhVOzM6nt63yaN-23" vertex="1">
          <mxGeometry x="33.787380100214705" y="318.47826086956525" width="108.79587687902647" height="60.65217391304347" as="geometry" />
        </mxCell>
        <mxCell id="ZqWD20Xh-i8jmS281j4s-15" value="给朋友审核一下" style="rounded=1;whiteSpace=wrap;html=1;absoluteArcSize=1;arcSize=14;strokeWidth=2;fontSize=10;fontFamily=Georgia;" parent="27A55JQhVOzM6nt63yaN-23" vertex="1">
          <mxGeometry x="49.996380465235234" y="229.9964929073924" width="76.37937491407793" height="43.654134471225916" as="geometry" />
        </mxCell>
        <mxCell id="rwsjK8wrvo-BfNU32ZgP-1" style="edgeStyle=orthogonalEdgeStyle;rounded=0;orthogonalLoop=1;jettySize=auto;html=1;entryX=0.5;entryY=0;entryDx=0;entryDy=0;entryPerimeter=0;fontSize=10;fontFamily=Georgia;" parent="27A55JQhVOzM6nt63yaN-23" source="ZqWD20Xh-i8jmS281j4s-15" target="rwsjK8wrvo-BfNU32ZgP-0" edge="1">
          <mxGeometry relative="1" as="geometry" />
        </mxCell>
        <mxCell id="27A55JQhVOzM6nt63yaN-24" value="混饭吃的我" style="swimlane;html=1;startSize=20;fontSize=10;" vertex="1" parent="27A55JQhVOzM6nt63yaN-22">
          <mxGeometry x="222.58" y="20" width="362.58" height="560" as="geometry" />
        </mxCell>
        <mxCell id="27A55JQhVOzM6nt63yaN-41" style="edgeStyle=none;rounded=0;orthogonalLoop=1;jettySize=auto;html=1;fontSize=10;entryX=0;entryY=0.75;entryDx=0;entryDy=0;" edge="1" parent="27A55JQhVOzM6nt63yaN-24" source="NFNQKHVkb_bmbVsBZRoB-3" target="NFNQKHVkb_bmbVsBZRoB-11">
          <mxGeometry relative="1" as="geometry" />
        </mxCell>
        <mxCell id="27A55JQhVOzM6nt63yaN-55" style="edgeStyle=orthogonalEdgeStyle;rounded=0;orthogonalLoop=1;jettySize=auto;html=1;fontSize=10;" edge="1" parent="27A55JQhVOzM6nt63yaN-24" source="27A55JQhVOzM6nt63yaN-54" target="NFNQKHVkb_bmbVsBZRoB-3">
          <mxGeometry relative="1" as="geometry" />
        </mxCell>
        <mxCell id="27A55JQhVOzM6nt63yaN-57" value="制造" style="edgeStyle=orthogonalEdgeStyle;rounded=0;orthogonalLoop=1;jettySize=auto;html=1;entryX=0.5;entryY=0.88;entryDx=0;entryDy=0;entryPerimeter=0;fontSize=10;" edge="1" parent="27A55JQhVOzM6nt63yaN-24" source="27A55JQhVOzM6nt63yaN-54" target="27A55JQhVOzM6nt63yaN-56">
          <mxGeometry relative="1" as="geometry">
            <Array as="points">
              <mxPoint x="157" y="304" />
            </Array>
          </mxGeometry>
        </mxCell>
        <mxCell id="27A55JQhVOzM6nt63yaN-54" value="&lt;span style=&quot;font-family: &amp;#34;georgia&amp;#34;&quot;&gt;检讨失败原因&lt;/span&gt;" style="rounded=1;whiteSpace=wrap;html=1;absoluteArcSize=1;arcSize=14;strokeWidth=2;fontSize=10;" vertex="1" parent="27A55JQhVOzM6nt63yaN-24">
          <mxGeometry x="26.04" y="284.15" width="92.58" height="40" as="geometry" />
        </mxCell>
        <mxCell id="NFNQKHVkb_bmbVsBZRoB-93" value="有" style="edgeStyle=elbowEdgeStyle;rounded=0;sketch=0;orthogonalLoop=1;jettySize=auto;html=1;labelBackgroundColor=none;strokeColor=#000000;fillColor=#BC6C25;fontFamily=Georgia;fontSize=10;fontColor=#000000;" parent="27A55JQhVOzM6nt63yaN-24" source="NFNQKHVkb_bmbVsBZRoB-32" target="NFNQKHVkb_bmbVsBZRoB-29" edge="1">
          <mxGeometry y="40" relative="1" as="geometry">
            <mxPoint x="2" y="10" as="offset" />
          </mxGeometry>
        </mxCell>
        <mxCell id="ZqWD20Xh-i8jmS281j4s-3" style="edgeStyle=orthogonalEdgeStyle;rounded=0;orthogonalLoop=1;jettySize=auto;html=1;entryX=0.5;entryY=0;entryDx=0;entryDy=0;fontSize=10;fontFamily=Georgia;" parent="27A55JQhVOzM6nt63yaN-24" source="ZqWD20Xh-i8jmS281j4s-0" target="ZqWD20Xh-i8jmS281j4s-1" edge="1">
          <mxGeometry relative="1" as="geometry" />
        </mxCell>
        <mxCell id="27A55JQhVOzM6nt63yaN-42" style="edgeStyle=none;rounded=0;orthogonalLoop=1;jettySize=auto;html=1;exitX=0.75;exitY=0;exitDx=0;exitDy=0;fontSize=10;" edge="1" parent="27A55JQhVOzM6nt63yaN-24" source="NFNQKHVkb_bmbVsBZRoB-11" target="NFNQKHVkb_bmbVsBZRoB-11">
          <mxGeometry relative="1" as="geometry" />
        </mxCell>
        <mxCell id="ZqWD20Xh-i8jmS281j4s-0" value="开始找工作" style="strokeWidth=2;html=1;shape=mxgraph.flowchart.start_1;whiteSpace=wrap;fontSize=10;fontFamily=Georgia;" parent="27A55JQhVOzM6nt63yaN-24" vertex="1">
          <mxGeometry x="37.68962061560497" y="39.99782608695648" width="66.97139584824625" height="35.21739130434782" as="geometry" />
        </mxCell>
        <mxCell id="ZqWD20Xh-i8jmS281j4s-1" value="准备简历" style="rounded=1;whiteSpace=wrap;html=1;absoluteArcSize=1;arcSize=14;strokeWidth=2;fontSize=10;fontFamily=Georgia;" parent="27A55JQhVOzM6nt63yaN-24" vertex="1">
          <mxGeometry x="32.98638046523541" y="133.45170568561872" width="76.37937491407793" height="31.18152462230423" as="geometry" />
        </mxCell>
        <mxCell id="NFNQKHVkb_bmbVsBZRoB-3" value="&lt;font style=&quot;font-size: 10px&quot;&gt;选择职位&lt;/font&gt;" style="rounded=1;whiteSpace=wrap;html=1;absoluteArcSize=1;arcSize=14;strokeWidth=2;fontSize=10;fontFamily=Georgia;" parent="27A55JQhVOzM6nt63yaN-24" vertex="1">
          <mxGeometry x="36.036845368741794" y="429.9973774651136" width="73.32419991751482" height="43.654134471225916" as="geometry" />
        </mxCell>
        <mxCell id="ZqWD20Xh-i8jmS281j4s-14" value="斩获Offer&lt;br style=&quot;font-size: 10px&quot;&gt;&lt;span style=&quot;font-size: 10px&quot;&gt;&lt;strike style=&quot;font-size: 10px&quot;&gt;成为社畜&lt;/strike&gt;&lt;/span&gt;" style="strokeWidth=2;html=1;shape=mxgraph.flowchart.terminator;whiteSpace=wrap;fontSize=10;fontFamily=Georgia;" parent="27A55JQhVOzM6nt63yaN-24" vertex="1">
          <mxGeometry x="127.42303507516101" y="499.9973913043477" width="128.38940586972083" height="39.13043478260869" as="geometry" />
        </mxCell>
        <mxCell id="NFNQKHVkb_bmbVsBZRoB-32" value="投了300份了吗" style="strokeWidth=2;html=1;shape=mxgraph.flowchart.decision;whiteSpace=wrap;fontSize=10;fontFamily=Georgia;" parent="27A55JQhVOzM6nt63yaN-24" vertex="1">
          <mxGeometry x="220.4738582677167" y="109.91043478260863" width="82.69148174659985" height="78.26086956521738" as="geometry" />
        </mxCell>
        <mxCell id="NFNQKHVkb_bmbVsBZRoB-97" value="接受电面、一面、N面..." style="verticalLabelPosition=middle;verticalAlign=middle;html=1;shape=process;whiteSpace=wrap;rounded=1;size=0.14;arcSize=6;labelBackgroundColor=none;sketch=0;fontFamily=Georgia;fontSize=10;labelPosition=center;align=center;labelBorderColor=none;" parent="27A55JQhVOzM6nt63yaN-24" vertex="1">
          <mxGeometry x="207.41544738725858" y="374.88826086956516" width="108.80458124552614" height="35.21739130434782" as="geometry" />
        </mxCell>
        <mxCell id="NFNQKHVkb_bmbVsBZRoB-94" value="没有" style="rounded=0;sketch=0;orthogonalLoop=1;jettySize=auto;html=1;labelBackgroundColor=none;strokeColor=#000000;fillColor=#BC6C25;fontFamily=Georgia;fontSize=10;fontColor=#000000;exitX=0.5;exitY=1;exitDx=0;exitDy=0;exitPerimeter=0;" parent="27A55JQhVOzM6nt63yaN-24" source="ZqWD20Xh-i8jmS281j4s-1" edge="1">
          <mxGeometry y="-38" relative="1" as="geometry">
            <mxPoint as="offset" />
            <mxPoint x="71.42000000000007" y="280" as="targetPoint" />
          </mxGeometry>
        </mxCell>
        <mxCell id="NFNQKHVkb_bmbVsBZRoB-11" value="投递" style="rounded=1;whiteSpace=wrap;html=1;absoluteArcSize=1;arcSize=14;strokeWidth=2;fontSize=10;fontFamily=Georgia;" parent="27A55JQhVOzM6nt63yaN-24" vertex="1">
          <mxGeometry x="251.45639226914844" y="252.84565217391295" width="87.0436649964209" height="31.304347826086953" as="geometry" />
        </mxCell>
        <mxCell id="27A55JQhVOzM6nt63yaN-56" value="失败备忘" style="strokeWidth=2;html=1;shape=mxgraph.flowchart.multi-document;whiteSpace=wrap;fontSize=10;" vertex="1" parent="27A55JQhVOzM6nt63yaN-24">
          <mxGeometry x="124.42" y="214" width="65.58" height="36" as="geometry" />
        </mxCell>
        <mxCell id="NFNQKHVkb_bmbVsBZRoB-29" value="放弃投递，啃老/成为外卖骑手" style="strokeWidth=2;html=1;shape=mxgraph.flowchart.terminator;whiteSpace=wrap;fontSize=10;fontFamily=Georgia;" parent="27A55JQhVOzM6nt63yaN-24" vertex="1">
          <mxGeometry x="201.9707587687904" y="30" width="124.0372226198998" height="35.21739130434782" as="geometry" />
        </mxCell>
        <mxCell id="27A55JQhVOzM6nt63yaN-58" value="没有" style="rounded=0;sketch=0;orthogonalLoop=1;jettySize=auto;html=1;entryX=1;entryY=0.5;entryDx=0;entryDy=0;labelBackgroundColor=none;strokeColor=#000000;fillColor=#BC6C25;fontFamily=Georgia;fontSize=10;fontColor=#000000;exitX=0;exitY=0.5;exitDx=0;exitDy=0;exitPerimeter=0;" edge="1" parent="27A55JQhVOzM6nt63yaN-24" source="NFNQKHVkb_bmbVsBZRoB-32" target="ZqWD20Xh-i8jmS281j4s-1">
          <mxGeometry x="-0.045" y="-9" relative="1" as="geometry">
            <mxPoint as="offset" />
            <mxPoint x="-1615.600400858984" y="668.2613043478259" as="sourcePoint" />
            <mxPoint x="-1814.3400000000001" y="760" as="targetPoint" />
          </mxGeometry>
        </mxCell>
        <mxCell id="27A55JQhVOzM6nt63yaN-25" value="挑剔的公司" style="swimlane;html=1;startSize=20;fontSize=10;" vertex="1" parent="27A55JQhVOzM6nt63yaN-22">
          <mxGeometry x="585.16" y="20" width="294.84" height="560" as="geometry" />
        </mxCell>
        <mxCell id="27A55JQhVOzM6nt63yaN-38" value="通过" style="edgeStyle=none;rounded=0;orthogonalLoop=1;jettySize=auto;html=1;entryX=0.5;entryY=1;entryDx=0;entryDy=0;fontSize=10;" edge="1" parent="27A55JQhVOzM6nt63yaN-25" source="27A55JQhVOzM6nt63yaN-35" target="27A55JQhVOzM6nt63yaN-36">
          <mxGeometry relative="1" as="geometry" />
        </mxCell>
        <mxCell id="27A55JQhVOzM6nt63yaN-47" style="edgeStyle=none;rounded=0;orthogonalLoop=1;jettySize=auto;html=1;entryX=0;entryY=0.5;entryDx=0;entryDy=0;entryPerimeter=0;fontSize=10;" edge="1" parent="27A55JQhVOzM6nt63yaN-25" source="27A55JQhVOzM6nt63yaN-35" target="27A55JQhVOzM6nt63yaN-46">
          <mxGeometry relative="1" as="geometry" />
        </mxCell>
        <mxCell id="27A55JQhVOzM6nt63yaN-36" value="发出通知：不进行下一阶段" style="rounded=1;whiteSpace=wrap;html=1;absoluteArcSize=1;arcSize=14;strokeWidth=2;fontSize=10;" vertex="1" parent="27A55JQhVOzM6nt63yaN-25">
          <mxGeometry x="34.84" y="123.54" width="115.16" height="51" as="geometry" />
        </mxCell>
        <mxCell id="27A55JQhVOzM6nt63yaN-35" value="通过目前阶段？" style="rhombus;whiteSpace=wrap;html=1;fontSize=10;" vertex="1" parent="27A55JQhVOzM6nt63yaN-25">
          <mxGeometry x="49.84" y="230" width="85.16" height="77" as="geometry" />
        </mxCell>
        <mxCell id="27A55JQhVOzM6nt63yaN-48" value="否" style="edgeStyle=none;rounded=0;orthogonalLoop=1;jettySize=auto;html=1;fontSize=10;entryX=1;entryY=0.5;entryDx=0;entryDy=0;exitX=0.226;exitY=0.826;exitDx=0;exitDy=0;exitPerimeter=0;" edge="1" parent="27A55JQhVOzM6nt63yaN-25" source="27A55JQhVOzM6nt63yaN-46" target="27A55JQhVOzM6nt63yaN-43">
          <mxGeometry relative="1" as="geometry">
            <mxPoint x="203.63035175879395" y="301.5" as="sourcePoint" />
            <mxPoint x="91.20859296482422" y="435" as="targetPoint" />
          </mxGeometry>
        </mxCell>
        <mxCell id="27A55JQhVOzM6nt63yaN-50" value="是" style="edgeStyle=none;rounded=0;orthogonalLoop=1;jettySize=auto;html=1;entryX=1;entryY=0.5;entryDx=0;entryDy=0;fontSize=10;" edge="1" parent="27A55JQhVOzM6nt63yaN-25" source="27A55JQhVOzM6nt63yaN-46" target="27A55JQhVOzM6nt63yaN-49">
          <mxGeometry x="-0.7081" y="1" relative="1" as="geometry">
            <Array as="points">
              <mxPoint x="233.84000000000015" y="520" />
            </Array>
            <mxPoint as="offset" />
          </mxGeometry>
        </mxCell>
        <mxCell id="27A55JQhVOzM6nt63yaN-43" value="发出通知：进行下一阶段" style="rounded=1;whiteSpace=wrap;html=1;absoluteArcSize=1;arcSize=14;strokeWidth=2;fontSize=10;" vertex="1" parent="27A55JQhVOzM6nt63yaN-25">
          <mxGeometry x="50" y="360" width="100" height="65" as="geometry" />
        </mxCell>
        <mxCell id="27A55JQhVOzM6nt63yaN-46" value="目前是否终面" style="strokeWidth=2;html=1;shape=mxgraph.flowchart.decision;whiteSpace=wrap;fontSize=10;" vertex="1" parent="27A55JQhVOzM6nt63yaN-25">
          <mxGeometry x="194.84" y="235.5" width="75.16" height="66" as="geometry" />
        </mxCell>
        <mxCell id="27A55JQhVOzM6nt63yaN-49" value="发出通知：录取" style="rounded=1;whiteSpace=wrap;html=1;absoluteArcSize=1;arcSize=14;strokeWidth=2;fontSize=10;" vertex="1" parent="27A55JQhVOzM6nt63yaN-25">
          <mxGeometry x="34.84" y="500" width="85.16" height="40" as="geometry" />
        </mxCell>
        <mxCell id="NFNQKHVkb_bmbVsBZRoB-1" value="行" style="edgeStyle=orthogonalEdgeStyle;rounded=0;orthogonalLoop=1;jettySize=auto;html=1;exitX=0.5;exitY=1;exitDx=0;exitDy=0;exitPerimeter=0;fontSize=10;labelBackgroundColor=none;entryX=0;entryY=0.5;entryDx=0;entryDy=0;fontFamily=Georgia;" parent="27A55JQhVOzM6nt63yaN-22" source="rwsjK8wrvo-BfNU32ZgP-0" target="NFNQKHVkb_bmbVsBZRoB-3" edge="1">
          <mxGeometry x="0.1811" y="12" relative="1" as="geometry">
            <mxPoint x="201.16658331239591" y="344.20868181293963" as="targetPoint" />
            <mxPoint as="offset" />
          </mxGeometry>
        </mxCell>
        <mxCell id="ZqWD20Xh-i8jmS281j4s-9" style="edgeStyle=orthogonalEdgeStyle;rounded=0;orthogonalLoop=1;jettySize=auto;html=1;entryX=0.5;entryY=0;entryDx=0;entryDy=0;fontSize=10;fontFamily=Georgia;" parent="27A55JQhVOzM6nt63yaN-22" source="ZqWD20Xh-i8jmS281j4s-1" target="ZqWD20Xh-i8jmS281j4s-15" edge="1">
          <mxGeometry relative="1" as="geometry">
            <mxPoint x="201.16658331239591" y="213.24627839926188" as="targetPoint" />
          </mxGeometry>
        </mxCell>
        <mxCell id="rwsjK8wrvo-BfNU32ZgP-2" style="edgeStyle=elbowEdgeStyle;rounded=0;orthogonalLoop=1;jettySize=auto;html=1;fontSize=10;fontFamily=Georgia;entryX=0;entryY=0.25;entryDx=0;entryDy=0;exitX=0;exitY=0.5;exitDx=0;exitDy=0;exitPerimeter=0;" parent="27A55JQhVOzM6nt63yaN-22" source="rwsjK8wrvo-BfNU32ZgP-0" target="ZqWD20Xh-i8jmS281j4s-1" edge="1">
          <mxGeometry relative="1" as="geometry">
            <Array as="points">
              <mxPoint x="30" y="270" />
            </Array>
            <mxPoint x="34" y="369" as="sourcePoint" />
            <mxPoint x="300" y="160" as="targetPoint" />
          </mxGeometry>
        </mxCell>
        <mxCell id="NFNQKHVkb_bmbVsBZRoB-0" value="不行" style="edgeLabel;html=1;align=center;verticalAlign=middle;resizable=0;points=[];fontSize=10;labelBackgroundColor=none;fontFamily=Georgia;" parent="rwsjK8wrvo-BfNU32ZgP-2" vertex="1" connectable="0">
          <mxGeometry x="0.0659" y="-1" relative="1" as="geometry">
            <mxPoint x="-34.75" y="6.55" as="offset" />
          </mxGeometry>
        </mxCell>
        <mxCell id="27A55JQhVOzM6nt63yaN-40" style="edgeStyle=none;rounded=0;orthogonalLoop=1;jettySize=auto;html=1;entryX=1;entryY=0.5;entryDx=0;entryDy=0;entryPerimeter=0;fontSize=10;" edge="1" parent="27A55JQhVOzM6nt63yaN-22" source="27A55JQhVOzM6nt63yaN-36" target="NFNQKHVkb_bmbVsBZRoB-32">
          <mxGeometry relative="1" as="geometry" />
        </mxCell>
        <mxCell id="27A55JQhVOzM6nt63yaN-44" style="edgeStyle=none;rounded=0;orthogonalLoop=1;jettySize=auto;html=1;entryX=1;entryY=0.5;entryDx=0;entryDy=0;fontSize=10;" edge="1" parent="27A55JQhVOzM6nt63yaN-22" source="27A55JQhVOzM6nt63yaN-43" target="NFNQKHVkb_bmbVsBZRoB-97">
          <mxGeometry relative="1" as="geometry" />
        </mxCell>
        <mxCell id="27A55JQhVOzM6nt63yaN-51" style="edgeStyle=none;rounded=0;orthogonalLoop=1;jettySize=auto;html=1;entryX=1;entryY=0.5;entryDx=0;entryDy=0;entryPerimeter=0;fontSize=10;" edge="1" parent="27A55JQhVOzM6nt63yaN-22" source="27A55JQhVOzM6nt63yaN-49" target="ZqWD20Xh-i8jmS281j4s-14">
          <mxGeometry relative="1" as="geometry" />
        </mxCell>
        <mxCell id="27A55JQhVOzM6nt63yaN-52" style="edgeStyle=none;rounded=0;orthogonalLoop=1;jettySize=auto;html=1;entryX=0;entryY=0.5;entryDx=0;entryDy=0;fontSize=10;" edge="1" parent="27A55JQhVOzM6nt63yaN-22" source="NFNQKHVkb_bmbVsBZRoB-11" target="27A55JQhVOzM6nt63yaN-35">
          <mxGeometry relative="1" as="geometry" />
        </mxCell>
        <mxCell id="27A55JQhVOzM6nt63yaN-53" style="edgeStyle=none;rounded=0;orthogonalLoop=1;jettySize=auto;html=1;fontSize=10;entryX=0;entryY=0.5;entryDx=0;entryDy=0;" edge="1" parent="27A55JQhVOzM6nt63yaN-22" source="NFNQKHVkb_bmbVsBZRoB-97" target="27A55JQhVOzM6nt63yaN-35">
          <mxGeometry relative="1" as="geometry">
            <mxPoint x="656" y="308" as="targetPoint" />
          </mxGeometry>
        </mxCell>
      </root>
    </mxGraphModel>
  </diagram>
</mxfile>
